<?xml version="1.0" encoding="UTF-8"?>
<svg id="Laag_2" data-name="Laag 2" xmlns="http://www.w3.org/2000/svg" viewBox="0 0 455.38 67.23">
  <defs>
    <style>
      .cls-1 {
        fill: #e9f7ff;
      }
    </style>
  </defs>
  <g id="Laag_1-2" data-name="Laag 1">
    <path class="cls-1" d="M250.48,1.53h6.69c1.21,0,2.29,.75,2.71,1.88l16.84,44.89c.94,2.51,4.48,2.51,5.43,0L299.06,3.41c.43-1.13,1.51-1.88,2.71-1.88h6.79c1.6,0,2.9,1.3,2.9,2.9V62.89c0,1.6-1.3,2.9-2.9,2.9h-2.3c-1.6,0-2.9-1.3-2.9-2.9V12.33h-.18l-19.36,51.58c-.42,1.13-1.51,1.88-2.71,1.88h-5.28L250.48,1.53Z"/>
    <path class="cls-1" d="M335.8,4.43V62.89c0,1.6-1.3,2.9-2.9,2.9h-2.75c-1.6,0-2.9-1.3-2.9-2.9V4.43c0-1.6,1.3-2.9,2.9-2.9h2.75c1.6,0,2.9,1.3,2.9,2.9Z"/>
    <path class="cls-1" d="M359.03,4.43V46.6c0,6.62,5.37,11.99,11.99,11.99h19.13c1.6,0,2.9,1.3,2.9,2.9v1.4c0,1.6-1.3,2.9-2.9,2.9h-20.53c-10.57,0-19.14-8.57-19.14-19.14V4.43c0-1.6,1.3-2.9,2.9-2.9h2.75c1.6,0,2.9,1.3,2.9,2.9Z"/>
    <g>
      <rect class="cls-1" x="21.42" y="15.93" width="8.55" height="49.86" rx="2.9" ry="2.9"/>
      <path class="cls-1" d="M0,4.43v1.4c0,1.6,1.3,2.9,2.9,2.9H48.49c1.6,0,2.9-1.3,2.9-2.9v-1.4c0-1.6-1.3-2.9-2.9-2.9H2.9C1.3,1.53,0,2.83,0,4.43Z"/>
    </g>
    <g>
      <rect class="cls-1" x="210.83" y="15.93" width="8.55" height="49.86" rx="2.9" ry="2.9"/>
      <path class="cls-1" d="M189.41,4.43v1.4c0,1.6,1.3,2.9,2.9,2.9h45.59c1.6,0,2.9-1.3,2.9-2.9v-1.4c0-1.6-1.3-2.9-2.9-2.9h-45.59c-1.6,0-2.9,1.3-2.9,2.9Z"/>
    </g>
    <g>
      <path class="cls-1" d="M137.49,30.92c1.95,1.23,4.15,2.22,6.61,2.97,.34,.1,.69,.21,1.03,.31,1.86,.54,3.72-.85,3.72-2.79v-2.37c0-1.21-.77-2.27-1.91-2.68-.31-.11-.61-.23-.9-.34-1.95-.78-3.51-1.78-4.68-3.02-1.17-1.23-1.76-2.83-1.76-4.81,0-2.1,.41-3.85,1.22-5.27,.81-1.41,1.89-2.53,3.24-3.38,1.35-.84,2.89-1.44,4.64-1.8,1.74-.36,3.51-.54,5.31-.54,4.44,0,8.08,1.03,10.94,3.1,2.37,1.72,3.92,4.32,4.65,7.81,.28,1.31,1.48,2.23,2.82,2.23h2.45c1.77,0,3.14-1.57,2.88-3.32-.33-2.16-.9-4.1-1.73-5.81-1.23-2.55-2.91-4.66-5.04-6.35-2.13-1.68-4.61-2.91-7.43-3.69-2.82-.78-5.88-1.17-9.18-1.17-2.94,0-5.81,.38-8.6,1.12-2.79,.75-5.28,1.89-7.47,3.42-2.19,1.53-3.95,3.48-5.27,5.85-1.32,2.37-1.98,5.17-1.98,8.42,0,2.94,.58,5.39,1.75,7.33,1.17,1.95,2.73,3.54,4.68,4.77Z"/>
      <path class="cls-1" d="M178.98,40.23c-1.17-2.1-2.73-3.84-4.68-5.22-1.95-1.38-4.16-2.48-6.62-3.29-1-.33-2.02-.64-3.04-.93-1.85-.53-3.69,.87-3.69,2.8v2.23c0,1.25,.81,2.36,2,2.75,.98,.32,1.91,.68,2.79,1.07,1.95,.87,3.51,2,4.68,3.38,1.17,1.38,1.75,3.18,1.75,5.4,0,2.34-.48,4.26-1.44,5.76-.96,1.5-2.22,2.69-3.78,3.55-1.56,.87-3.32,1.49-5.27,1.85-1.95,.36-3.89,.54-5.81,.54-2.4,0-4.74-.3-7.02-.9-2.28-.6-4.27-1.53-5.98-2.79-1.71-1.26-3.09-2.86-4.14-4.81-.72-1.33-1.19-2.83-1.42-4.51-.19-1.42-1.43-2.46-2.86-2.46h-2.34c-1.73,0-3.08,1.5-2.89,3.22,.29,2.57,.93,4.87,1.94,6.91,1.41,2.85,3.33,5.19,5.76,7.02,2.43,1.83,5.25,3.19,8.46,4.09,3.21,.9,6.61,1.35,10.21,1.35,2.94,0,5.9-.35,8.87-1.04,2.97-.69,5.65-1.8,8.05-3.33,2.4-1.53,4.37-3.51,5.9-5.94,1.53-2.43,2.3-5.35,2.3-8.77,0-3.18-.59-5.82-1.76-7.92Z"/>
    </g>
    <g>
      <path class="cls-1" d="M449.73,1.53c-1.6,0-2.9,1.3-2.9,2.9V42.57c0,5.76-1.43,10.12-4.27,13.1-1.37,1.42-3.03,2.5-5,3.24-1.16,.44-1.96,1.5-1.96,2.74v1.7c0,1.88,1.78,3.29,3.6,2.82,3.84-1,7.05-2.69,9.61-5.1,4.38-4.11,6.57-10.27,6.57-18.5V4.43c0-1.6-1.3-2.9-2.9-2.9h-2.75Z"/>
      <path class="cls-1" d="M423.5,61.39c0-1.22-.78-2.28-1.91-2.73-1.83-.72-3.41-1.72-4.73-3-3.06-2.97-4.59-7.33-4.59-13.1V4.43c0-1.6-1.3-2.9-2.9-2.9h-2.75c-1.6,0-2.9,1.3-2.9,2.9V42.57c0,8.58,2.32,14.84,6.97,18.77,2.52,2.13,5.59,3.68,9.19,4.65,1.82,.49,3.61-.92,3.61-2.81v-1.78Z"/>
    </g>
    <g>
      <path class="cls-1" d="M69.76,32.06v1.4c0,1.6,1.3,2.9,2.9,2.9h36.14c1.6,0,2.9-1.3,2.9-2.9v-1.4c0-1.6-1.3-2.9-2.9-2.9h-36.14c-1.6,0-2.9,1.3-2.9,2.9Z"/>
      <path class="cls-1" d="M78.31,8.73h32.92c1.6,0,2.9-1.3,2.9-2.9v-1.4c0-1.6-1.3-2.9-2.9-2.9h-38.57c-1.6,0-2.9,1.3-2.9,2.9v1.4c0,1.6,1.3,2.9,2.9,2.9h5.65Z"/>
      <path class="cls-1" d="M69.76,61.49v1.4c0,1.6,1.3,2.9,2.9,2.9h38.84c1.6,0,2.9-1.3,2.9-2.9v-1.4c0-1.6-1.3-2.9-2.9-2.9h-38.84c-1.6,0-2.9,1.3-2.9,2.9Z"/>
    </g>
  </g>
</svg>